# xmcd
#
# Track frame offsets:
#	182
#	13250
#	27522
#	42350
#	55800
#	69050
#	80677
#	95537
#	107562
#	120260
#	135050
#	147507
#	157807
#	172035
#	182030
#	197122
#	210560
#	223320
#
# Disc length: 3167 seconds
#
# Revision: 0
# Processed by: cddbd v1.5.2PL0 Copyright (c) Steve Scherf et al.
# Submitted via: EasyCDDAExtractor 15.3.0.1
#
DISCID=f90c5d12
DTITLE=Muddy Waters - Maestros del Jazz y del Blues nº 13
DYEAR=1900
DGENRE=Blues
TTITLE0=Louisiana blues
TTITLE1=I feel like going home
TTITLE2=Streamline woman
TTITLE3=Rollin' and tumblin'
TTITLE4=Walkin' blues
TTITLE5=Mean disposition
TTITLE6=Still a fool
TTITLE7=Long distance call
TTITLE8=Stuff you gotta watch
TTITLE9=Baby please don't go
TTITLE10=I can't be satisfied
TTITLE11=Mean red spider
TTITLE12=Rolling stone
TTITLE13=Evans shuffle
TTITLE14=Honey bee
TTITLE15=She moves me
TTITLE16=Train fare home blues
TTITLE17=Blow wind blow
EXTD=
EXTT0=
EXTT1=
EXTT2=
EXTT3=
EXTT4=
EXTT5=
EXTT6=
EXTT7=
EXTT8=
EXTT9=
EXTT10=
EXTT11=
EXTT12=
EXTT13=
EXTT14=
EXTT15=
EXTT16=
EXTT17=
PLAYORDER=
